<?xml version="1.0" encoding="UTF-8"?>
<!DOCTYPE svg PUBLIC "-//W3C//DTD SVG 1.1//EN" "http://www.w3.org/Graphics/SVG/1.1/DTD/svg11.dtd">
<svg version="1.1" xmlns="http://www.w3.org/2000/svg" xmlns:xlink="http://www.w3.org/1999/xlink" x="0" y="0" width="900" height="900" viewBox="0, 0, 900, 900">
  <g id="Assets">
    <g id="Tree">
      <path d="M648.728,324.576 L634.15,335.76 L618.603,333.098 L604.026,321.912 L606.941,311.851 L604.026,300.354 L585.198,289.958 L583.134,265.989 L600.625,250.012 L618.603,255.337 L618.603,230.306 L638.523,227.642 L649.214,228.174 L654.558,215.925 L673.506,206.339 L693.428,216.99 L698.775,242.554 L713.836,244.686 L737.276,255.337 L747.362,289.958 L725.011,304.824 L702.174,318.186 L692.458,331.501 L678.367,314.989 L648.728,324.576 z" fill="#006414"/>
      <path d="M705.936,303.283 L716.169,283.965 L734.974,271.087 L739.742,286.648 L726.863,300.6 L705.936,303.283 z" fill="#083B12"/>
      <path d="M693.594,239.427 L693.428,216.99 L671.593,209.996 L671.593,231.378 L693.594,239.427 z" fill="#083B12"/>
      <path d="M660.863,377.463 L660.388,351.207 L652.615,324.576 L626.377,302.694 L606.941,290.49 L609.856,285.697 L647.27,302.694 L657.473,302.694 L658.445,293.684 L643.382,263.859 L646.297,260.131 L661.36,282.5 L667.19,258.533 L675.452,261.195 L672.049,302.694 L678.853,306.467 L698.289,285.162 L702.174,288.891 L683.225,316.586 L680.824,332.566 L683.225,354.401 L685.66,381.797 L660.863,377.463 z" fill="#9B7F41"/>
      <path d="M678.506,381.572 L674.75,351.522 L667.169,322.545 L667.169,308.594 L681.924,319.862 L677.433,341.326 L681.924,364.937 L684.239,381.572 L678.506,381.572 z" fill="#634B16"/>
    </g>
    <g id="Lamp">
      <path d="M547.488,258.533 L550.629,250.053 L549.687,237.803 L541.52,224.297 L553.142,235.604 L555.34,249.738 L552.827,256.963 L547.488,258.533 z" fill="#757575"/>
      <path d="M495.348,382.286 L497.233,357.158 L494.406,316.012 L493.778,284.603 L498.803,252.879 L505.714,234.348 L509.169,227.124 L523.617,217.701 L509.169,223.355 L502.259,229.636 L496.291,249.738 L491.265,270.783 L490.009,293.397 L490.637,323.236 L492.522,349.62 L489.381,383.542 L495.348,382.286 z" fill="#757575"/>
      <path d="M493.504,381.797 L494.703,342.979 L492.07,295.346 L494.2,262.522 L506.331,226.871 L523.14,216.152 L542.618,219.783 L555.4,234.946 L559.758,248.613 L572.261,256.808 L545.531,260.245 L552.057,250.12 L551.49,236.24 L541.609,223.898 L524.069,222.152 L512.177,227.455 L499.968,263.813 L497.878,291.573 L501.636,338.739 L501.086,381.319 z" fill="#CECECE"/>
      <path d="M558.795,250.053 L560.994,256.02 L567.59,256.02 L558.795,250.053 z" fill="#757575"/>
    </g>
    <g id="Bush">
      <path d="M561.302,379.525 L533.353,376.543 L521.529,347.813 L532.278,319.865 L547.328,323.627 L562.377,301.053 L583.876,303.203 L595.701,323.089 L606.988,327.389 L616.662,341.901 L595.701,370.387 L598.388,381.797 L561.302,379.525 z" fill="#056818"/>
      <path d="M572.627,372.94 L578.539,361.41 L576.389,340.986 L579.614,325.937 L579.614,306.637 L587.676,321.637 L593.588,328.624 L601.113,331.312 L606.488,342.061 L597.351,357.648 L589.826,370.01 L592.513,375.385 L572.627,372.94 z" fill="#123D1A"/>
      <path d="M539.303,362.485 C537.153,358.723 537.153,358.723 537.153,358.723 L543.065,356.036 L539.303,362.485 z" fill="#FF1717"/>
      <path d="M561.877,368.398 L558.652,362.485 L564.027,362.485 L561.877,368.398 z" fill="#FF1717"/>
      <path d="M554.779,331.514 L558.652,334.943 L560.138,331.299 L554.779,331.514 z" fill="#FF1717"/>
      <path d="M586.291,320.366 L585.219,324.439 L589.935,325.297 L586.291,320.366 z" fill="#FF1717"/>
      <path d="M589.935,344.161 L589.935,347.162 L593.794,346.091 L589.935,344.161 z" fill="#FF1717"/>
      <path d="M566.783,309.219 L566.569,313.721 L570.642,312.006 L566.783,309.219 z" fill="#FF1717"/>
      <path d="M533.771,332.8 L532.913,334.943 L539.13,331.299 L533.771,332.8 z" fill="#FF1717"/>
      <path d="M568.713,345.662 L568.498,348.877 L570.642,347.162 L568.713,345.662 z" fill="#FF1717"/>
      <path d="M586.291,365.598 L589.935,366.241 L589.935,362.485 L586.291,365.598 z" fill="#FF1717"/>
    </g>
    <g id="Trash">
      <path d="M439.747,376.759 L439.919,358.394 L443.531,358.394 L443.187,376.759 L439.747,376.759 z" fill="#989898"/>
      <path d="M441.557,376.935 L441.557,365.256 L443.28,364.299 L443.187,376.759 L441.557,376.935 z" fill="#717171"/>
      <path d="M440.263,369.988 L435.446,369.128 L433.209,362.247 L433.209,353.301 L434.414,348.312 L439.919,345.388 L446.284,344.527 L450.068,346.248 L451.445,350.173 L451.445,355.193 L451.445,362.075 L449.896,366.516 L444.907,369.644 L440.263,369.988 z" fill="#ED6C00"/>
      <path d="M436.478,350.173 L439.919,347.452 L444.047,346.42 L448.176,346.936 L449.38,350.173 L448.004,351.538 L438.198,351.538 L436.478,350.173 z" fill="#000000"/>
      <path d="M442.366,369.511 L446.195,368.554 L449.067,367.213 L450.982,363.193 L450.982,355.151 L448.876,362.235 L446.961,365.873 L442.366,369.511 z" fill="#A84D00"/>
    </g>
    <g id="Faucet">
      <path d="M470.136,376.759 L470.39,366.088 L468.359,366.088 L468.359,360.248 L470.136,359.994 L469.882,355.931 L473.437,353.392 L475.215,353.392 L478.516,355.424 L478.516,359.486 L480.039,359.74 L480.547,365.581 L478.769,365.581 L479.277,376.486 L470.136,376.759 z" fill="#FF0000"/>
      <path d="M475.411,374.944 L474.861,365.326 L474.724,354.197 L477.334,355.571 L477.884,360.105 L479.258,360.655 L479.533,364.639 L478.021,364.639 L478.571,374.944 L475.411,374.944 z" fill="#810606"/>
      <path d="M480.039,359.74 L480.547,364.914 L482.555,364.914 L482.143,359.831 L480.039,359.74 z" fill="#C3C3C3"/>
      <path d="M466.343,360.518 L468.359,360.248 L469.091,364.914 L466.068,365.739 L466.343,360.518 z" fill="#C3C3C3"/>
    </g>
    <path d="M525.884,61.351 L541.297,94.613 L596.462,93.802 L621.611,79.199 L648.382,79.199 L661.362,46.749 L628.912,33.769 L583.482,43.192 L547.787,39.448 L525.884,61.351 z" fill="#E4F1F9"/>
    <path d="M730.631,92.957 L742.138,99.284 L770.265,104.463 L811.815,87.066 L827.157,96.761 L852.727,92.318 L871.265,71.223 L846.974,38.717 L807.98,38.717 L777.882,23.919 L754.923,50.237 L718.486,45.653 L694.194,83.368 L707.618,99.54 L730.631,92.957 z" fill="#F3FAFD"/>
    <g id="Bench">
      <path d="M273.901,376.759 L273.901,336.652 L283.257,336.652 L285.039,375.981 L273.901,376.759 z" fill="#B5B5B5"/>
      <path d="M327.798,376.759 L338.044,376.759 L335.938,338.988 L326.015,336.652 L327.798,376.759 z" fill="#B5B5B5"/>
      <path d="M335.47,377.212 L332.258,339.801 L335.848,339.99 L338.044,376.759 L335.47,377.212 z" fill="#7D7D7D"/>
      <path d="M283.133,375.889 L282.188,355.295 L279.354,339.423 L282.377,339.423 L285.211,375.134 L283.133,375.889 z" fill="#7D7D7D"/>
      <path d="M262.309,362.352 L262.309,367.025 L349.182,369.751 L349.182,364.299 L262.309,362.352 z" fill="#FF0000"/>
      <path d="M262.309,341.324 L262.309,353.396 L349.182,354.175 L347.399,342.493 L262.309,341.324 z" fill="#FF0000"/>
      <path d="M262.727,352.949 L262.916,354.461 L348.885,355.027 L348.129,352.76 L262.727,352.949 z" fill="#9E1C1C"/>
      <path d="M262.538,365.687 L299.759,367.198 L348.696,367.198 L349.074,368.899 L299.759,368.143 L262.309,367.025 L262.538,365.687 z" fill="#9E1C1C"/>
    </g>
    <g id="Fence1">
      <path d="M83.505,331.713 L83.505,341.602 L121.857,340.502 L151.3,344.349 L188.49,341.052 L231.103,344.899 L231.103,337.757 L190.426,331.163 L153.237,335.56 L125.196,331.163 L83.505,331.713 z" fill="#7F4400"/>
      <path d="M83.505,363.576 L83.505,363.576 L121.857,366.323 L150.524,363.576 L183.84,369.068 L219.481,363.576 L231.103,365.773 L231.103,356.984 L218.319,355.885 L183.452,359.182 L153.237,355.335 L121.857,358.082 L83.505,353.687 L83.505,363.576 z" fill="#7F4400"/>
      <path d="M87.503,376.759 L85.178,321.277 L93.315,321.825 L90.99,375.662 L87.503,376.759 z" fill="#C56A00"/>
      <path d="M97.545,376.759 L97.545,323.474 L105.323,321.277 L102.612,376.759 L97.545,376.759 z" fill="#C56A00"/>
      <path d="M109.973,376.759 L110.359,323.474 L118.108,324.572 L115.783,376.759 L109.973,376.759 z" fill="#94632B"/>
      <path d="M120.431,376.759 L123.771,323.474 L129.729,323.474 L128.18,376.759 L120.431,376.759 z" fill="#C56A00"/>
      <path d="M133.602,376.759 L133.99,325.671 L140.576,323.474 L140.188,376.759 L133.602,376.759 z" fill="#996427"/>
      <path d="M146,376.759 L144.062,323.474 L150.26,326.221 L151.811,376.759 L146,376.759 z" fill="#C56A00"/>
      <path d="M156.072,376.759 L156.072,326.221 L163.045,323.474 L162.658,374.012 L156.072,376.759 z" fill="#C56A00"/>
      <path d="M166.918,376.759 L167.306,325.671 L176.217,326.769 L173.892,376.759 L166.918,376.759 z" fill="#C56A00"/>
      <path d="M179.316,376.759 L180.091,325.671 L185.514,323.474 L184.739,376.759 L179.316,376.759 z" fill="#7F501A"/>
      <path d="M189,376.759 L189,325.671 L196.361,325.671 L196.361,376.759 L189,376.759 z" fill="#C56A00"/>
      <path d="M202.559,376.759 L201.785,328.418 L207.983,325.671 L207.208,376.759 L202.559,376.759 z" fill="#C56A00"/>
      <path d="M212.244,376.759 L212.244,323.474 L219.749,323.474 L217.28,376.759 L212.244,376.759 z" fill="#955305"/>
      <path d="M223.091,376.759 L223.091,325.671 L228.128,327.869 L229.677,376.759 L223.091,376.759 z" fill="#C56A00"/>
    </g>
    <g>
      <path d="M37.433,507.57 L37.433,468.581 L69.325,478.646 L69.325,435.299 L112.557,447.661 L107.055,478.646 L129.673,482.845 L128.722,516.703 L37.433,507.57 z" fill="#000000"/>
      <path d="M37.433,507.57 L37.433,468.581 L69.325,478.646 L69.325,435.299 L112.557,447.661 L107.055,478.646 L129.673,482.845 L128.722,516.703 L37.433,507.57 z" fill-opacity="0" stroke="#000000" stroke-width="1"/>
    </g>
    <g>
      <path d="M214.813,523.712 L206.305,454.67 L176.776,442.308 L274.722,402.369 L334.992,453.719 L311.38,453.719 L299.446,527.892 L214.813,523.712 z" fill="#000000"/>
      <path d="M214.813,523.712 L206.305,454.67 L176.776,442.308 L274.722,402.369 L334.992,453.719 L311.38,453.719 L299.446,527.892 L214.813,523.712 z" fill-opacity="0" stroke="#000000" stroke-width="1"/>
    </g>
    <g id="EndSign">
      <path d="M392.614,356.019 L390.218,375.592 L393.572,376.759 L397.165,356.019 L392.614,356.019 z" fill="#000000"/>
      <path d="M383.03,338.049 L379.435,365.545 L411.543,365.311 L414.895,336.652 L383.03,338.049 z" fill="#FFFFFF"/>
      <path d="M384.904,339.943 L381.831,363.448 L409.277,363.248 L412.144,338.748 L384.904,339.943 z" fill="#000000"/>
      <path d="M389.499,351.331 L397.405,350.632 L398.364,346.203 L404.115,353.196 L398.124,356.224 L397.886,353.661 L388.54,353.894 L389.499,351.331 z" fill="#FFFFFF"/>
    </g>
    <g id="EndSign">
      <path d="M391.228,416.997 L388.832,436.57 L392.186,437.737 L395.779,416.997 L391.228,416.997 z" fill="#000000"/>
      <path d="M381.644,399.027 L378.049,426.523 L410.157,426.289 L413.509,397.63 L381.644,399.027 z" fill="#FFFFFF"/>
      <path d="M383.518,400.921 L380.445,424.426 L407.891,424.226 L410.758,399.726 L383.518,400.921 z" fill="#000000"/>
      <path d="M400.604,408.372 L394.355,413.266 L395.964,417.502 L387.331,414.772 L390.705,408.969 L392.301,410.988 L400.011,405.701 L400.604,408.372 z" fill="#FFFFFF"/>
    </g>
    <path d="M25.213,297.195 L23.867,244.363 L56.843,244.363 L55.497,297.195 L25.213,297.195 z" fill="#484848" id="Pivot_l0_t0"/>
    <g id="Tree2">
      <path d="M799.302,323.324 L772.641,335.411 L753.445,319.415 L734.783,319.415 L723.052,303.951 L733.716,283.689 L737.982,256.495 L734.783,241.417 L752.379,232.552 L767.309,227.702 L781.172,201.574 L807.833,202.108 L835.027,216.504 L846.225,237.3 L872.885,248.497 L884.616,271.959 L886.749,297.553 L870.731,314.616 L841.959,309.817 L829.162,323.324 L799.302,323.324 z" fill="#007005"/>
      <path d="M807.3,390.865 L797.169,356.206 L800.901,329.546 L797.169,316.215 L779.04,315.149 L759.844,298.162 L761.977,291.688 L780.106,303.951 L795.036,300.52 L791.837,284.223 L783.839,262.361 L788.104,256.495 L806.233,286.889 L819.031,291.154 L829.695,290.088 L857.422,282.623 L860.621,290.621 L834.494,300.52 L828.095,310.35 L829.695,336.119 L836.627,357.806 L839.826,391.932 L807.3,390.865 z" fill="#AF9B5C"/>
      <path d="M811.566,387.666 L803.034,356.206 L808.366,329.013 L803.034,314.616 L794.503,282.623 L808.9,301.285 L815.831,319.415 L819.031,341.276 L819.031,362.605 L823.83,384.467 L811.566,387.666 z" fill="#704E00"/>
      <path d="M783.305,212.772 L775.84,227.702 L787.038,249.564 L802.501,269.822 L812.099,282.623 L828.628,274.091 L833.427,241.417 L831.295,224.677 L803.567,209.302 L783.305,212.772 z" fill="#07410A"/>
      <path d="M865.953,256.495 L860.621,269.822 L865.42,306.084 L873.418,294.887 L873.952,272.492 L865.953,256.495 z" fill="#07410A"/>
    </g>
  </g>
  <g id="Panel">
    <g id="Panel">
      <path d="M101.679,69.921 L100.937,55.331 L91.848,55.29 L91.996,51.422 L102.008,50.061 L100.646,40.283 L90.728,39.225 L90.913,34.385 L100.87,34.477 L105.477,15.831 L111.958,16.208 L106.485,34.8 L116.313,38.279 L116.219,40.698 L105.418,40.073 L106.888,46.948 L116.752,49.456 L116.15,53.786 L106.664,52.754 L107.784,68.822 L101.679,69.921 z" fill="#000000"/>
      <path d="M82.879,295.245 L66.01,64.124 L236.155,65.575 L227.311,297.267 z" fill="#C0A496"/>
      <path d="M84.038,82.547 L125.852,80.771 L129.69,120.549 L87.315,122.892 L84.038,82.547 z" fill="#FCFAFA"/>
      <path d="M139.204,82.972 L142.71,117.337 L174.797,117.993 L179.949,81.134 L139.204,82.972 z" fill="#FFFFFF"/>
      <path d="M177.991,131.516 L140.243,131.879 L142.84,166.982 L179.236,166.76 L177.991,131.516 z" fill="#FFFFFF"/>
      <path d="M189.405,84.446 L189.285,115.601 L223.975,118.209 L229.084,82.544 L189.405,84.446 z" fill="#FCFAFA"/>
      <path d="M89.04,133.781 L129.16,134.303 L133.692,169.927 L92.386,172.331 L89.04,133.781 z" fill="#FFFFFF"/>
      <path d="M140.08,297.286 L139.539,243.492 L173.569,244.454 L179.673,297.286 L140.08,297.286 z" fill="#FCFAFA"/>
      <path d="M95.691,183.91 L96.208,226.491 L133.888,220.88 L133.234,181.886 L95.691,183.91 z" fill="#FFFFFF"/>
      <path d="M191.338,133.243 L189.322,171.936 L226.201,169.693 L225.547,130.699 L191.338,133.243 z" fill="#FFFFFF"/>
      <path d="M146.052,182.628 L147.725,222.877 L174.45,223.824 L176.093,180.766 L146.052,182.628 z" fill="#FCFAFA"/>
      <path d="M188.236,185.065 L186.871,220.946 L219.401,224.025 L220.953,183.361 L188.236,185.065 z" fill="#FFFFFF"/>
      <path d="M136.524,297.286 L132.493,238.035 L139.539,243.492 L140.08,297.286 L136.524,297.286 z" fill="#815E13"/>
      <path d="M173.569,244.454 L139.539,243.492 L132.493,238.035 L175.216,238.035 L173.569,244.454 z" fill="#7C5314"/>
      <path d="M179.673,297.286 L173.569,244.454 L175.216,238.035 L183.277,298.695 L179.673,297.286 z" fill="#8D6637"/>
      <path d="M96.208,226.491 L94.607,230.78 L132.493,227.959 L133.888,220.88 L96.208,226.491 z" fill="#8D6637"/>
      <path d="M147.725,222.877 L147.809,226.75 L175.216,229.168 L174.45,223.824 L147.725,222.877 z" fill="#8D6637"/>
      <path d="M186.871,220.946 L186.501,227.153 L221.163,229.168 L219.401,224.025 L186.871,220.946 z" fill="#8D6637"/>
      <path d="M92.386,172.331 L91.383,175.563 L136.927,173.951 L133.692,169.927 L92.386,172.331 z" fill="#8D6637"/>
      <path d="M142.84,166.982 L142.972,169.927 L180.052,172.742 L179.236,166.76 L142.84,166.982 z" fill="#8D6637"/>
      <path d="M189.322,171.936 L188.919,175.563 L228.015,175.563 L226.201,169.693 L189.322,171.936 z" fill="#8D6637"/>
      <path d="M189.285,115.601 L188.919,119.943 L226.201,121.958 L223.975,118.209 L189.285,115.601 z" fill="#8D6637"/>
      <path d="M142.71,117.337 L140.08,121.958 L175.216,121.958 L174.797,117.993 L142.71,117.337 z" fill="#8D6637"/>
      <path d="M87.315,122.892 L86.143,127.557 L130.075,124.78 L129.269,117.337 L87.315,122.892 z" fill="#8D6637"/>
      <path d="M223.212,296.775 L225.471,248.964 L227.73,185.718 L231.871,126.99 L231.871,67.509 L235.259,66.003 L234.506,134.896 L231.494,180.072 L231.118,229.388 L229.988,296.399 L223.212,296.775 z" fill="#8A6740"/>
      <path d="M81.662,295.269 L76.391,229.388 L72.25,165.766 L65.474,104.779 L62.839,65.25 L66.227,64.121 L70.368,119.461 L78.274,180.824 L82.415,248.588 L88.438,294.516 L81.662,295.269 z" fill="#8E6639"/>
      <path d="M62.839,64.874 L100.861,63.368 L136.249,63.744 L172.013,64.874 L202.883,64.121 L236.012,64.874 L233,68.638 L198.742,67.886 L161.848,66.003 L127.214,66.756 L90.321,65.627 L63.968,69.768 L62.839,64.874 z" fill="#7D5D39"/>
      <path d="M98.528,277.52 L99.004,281.803 L105.667,281.803 L105.667,275.616 L98.528,277.52 z" fill="#AD7E49"/>
      <path d="M109.001,275.999 L109.001,280.295 L115.085,281.01 L115.085,277.431 L109.001,275.999 z" fill="#AD7E49"/>
      <path d="M117.949,277.431 L122.602,276.715 L122.602,281.01 L117.233,280.295 L117.949,277.431 z" fill="#AD7E49"/>
      <path d="M104.705,283.874 L104.705,288.169 L110.432,288.169 L111.148,284.232 L104.705,283.874 z" fill="#AD7E49"/>
      <path d="M114.727,283.874 L114.727,287.811 L120.454,287.811 L120.454,284.232 L114.727,283.874 z" fill="#AD7E49"/>
      <path d="M197.768,274.568 L198.126,280.653 L202.063,286.379 L211.369,286.379 L214.948,273.852 L202.063,270.63 L197.768,274.568 z" fill="#D6AE9B"/>
      <path d="M92.536,236.985 L102.558,234.837 L116.875,239.132 L111.148,245.933 L110.074,252.018 L96.831,254.524 L87.883,249.155 L92.536,236.985 z" fill="#D6AE9B"/>
      <path d="M89.095,122.294 L86.592,84.397 L123.774,81.894 L126.992,117.646 L130.21,122.294 L126.277,78.319 L83.017,81.179 L86.235,125.512 L89.095,122.294 z" fill="#8D6637"/>
      <path d="M142.365,117.646 L137.718,82.252 L181.335,80.822 L174.9,119.076 L172.397,119.076 L177.402,83.682 L142.723,84.397 L145.583,116.931 L142.365,117.646 z" fill="#8D6637"/>
      <path d="M189.2,116.216 L187.77,83.682 L228.885,81.537 L224.595,118.361 L221.02,118.361 L226.025,84.039 L191.703,86.542 L193.133,115.501 L189.2,116.216 z" fill="#8D6637"/>
      <path d="M92.312,171.989 L88.022,133.02 L130.21,133.377 L133.785,169.844 L130.925,170.202 L127.349,136.595 L93.385,137.31 L94.815,170.917 L92.312,171.989 z" fill="#8D6637"/>
      <path d="M142.008,166.627 L139.863,131.947 L178.832,131.232 L179.19,167.342 L176.33,166.984 L175.972,134.45 L143.08,134.45 L145.225,166.269 L142.008,166.627 z" fill="#8D6637"/>
      <path d="M188.843,172.347 L190.631,131.947 L225.668,129.802 L226.383,169.487 L222.45,169.487 L222.45,132.662 L192.418,133.735 L191.703,172.347 L188.843,172.347 z" fill="#8D6637"/>
      <path d="M95.888,226.332 L95.53,183.43 L134.142,182 L133.785,221.327 L129.852,221.685 L131.282,185.218 L98.39,185.575 L99.82,224.902 L95.888,226.332 z" fill="#8D6637"/>
      <path d="M148.086,223.115 L146.298,182.358 L176.687,181.642 L174.185,224.902 L171.682,224.545 L173.47,184.503 L149.873,185.218 L152.376,222.757 L148.086,223.115 z" fill="#8D6637"/>
      <path d="M187.055,220.97 L187.413,184.145 L220.305,182 L219.232,223.472 L215.299,223.472 L218.16,184.503 L190.631,186.29 L190.273,220.255 L187.055,220.97 z" fill="#8D6637"/>
    </g>
  </g>
  <g id="Panel">
    <path d="M360.133,78.009 L359.391,63.419 L350.302,63.378 L350.45,59.51 L360.462,58.149 L359.1,48.371 L349.182,47.313 L349.367,42.473 L359.324,42.565 L363.931,23.919 L370.412,24.296 L364.939,42.888 L374.767,46.367 L374.673,48.786 L363.872,48.161 L365.342,55.036 L375.206,57.544 L374.604,61.874 L365.118,60.842 L366.238,76.91 L360.133,78.009 z" fill="#000000"/>
    <path d="M278.002,298.695 L271.995,76.685 L451.445,69.676 L428.557,299.625 z" fill="#C09696"/>
    <path d="M285.284,84.905 L327.098,83.129 L330.936,122.907 L288.561,125.25 L285.284,84.905 z" fill="#FCFAFA"/>
    <path d="M340.45,85.33 L343.956,119.695 L376.043,120.351 L381.195,83.492 L340.45,85.33 z" fill="#FFFFFF"/>
    <path d="M379.237,133.874 L341.489,134.237 L344.086,169.34 L380.482,169.118 L379.237,133.874 z" fill="#FFFFFF"/>
    <path d="M390.651,86.804 L390.531,117.959 L425.221,120.567 L430.33,84.902 L390.651,86.804 z" fill="#FCFAFA"/>
    <path d="M290.286,136.139 L330.406,136.661 L334.938,172.285 L293.632,174.689 L290.286,136.139 z" fill="#FFFFFF"/>
    <path d="M341.327,299.644 L340.785,245.85 L377.443,248.001 L380.919,299.644 L341.327,299.644 z" fill="#FCFAFA"/>
    <path d="M296.937,186.268 L297.454,228.849 L335.134,223.238 L334.48,184.244 L296.937,186.268 z" fill="#FFFFFF"/>
    <path d="M392.584,136.601 L390.569,175.293 L427.447,173.051 L426.793,134.057 L392.584,136.601 z" fill="#FFFFFF"/>
    <path d="M345.298,184.986 L346.971,225.235 L373.696,226.182 L375.339,183.124 L345.298,184.986 z" fill="#FCFAFA"/>
    <path d="M389.482,187.423 L388.117,223.304 L420.647,226.383 L422.199,185.719 L389.482,187.423 z" fill="#FFFFFF"/>
    <path d="M337.77,299.644 L333.74,240.393 L340.785,245.85 L341.327,299.644 L337.77,299.644 z" fill="#815E13"/>
    <path d="M377.443,248.001 L340.785,245.85 L333.74,240.393 L382.197,240.395 L377.443,248.001 z" fill="#7C5314"/>
    <path d="M380.919,299.644 L377.443,248.001 L382.197,240.395 L384.523,301.053 L380.919,299.644 z" fill="#8D6637"/>
    <path d="M297.454,228.849 L295.854,233.138 L333.74,230.316 L335.134,223.238 L297.454,228.849 z" fill="#8D6637"/>
    <path d="M348.971,225.235 L349.055,229.107 L376.462,231.526 L375.696,226.182 L348.971,225.235 z" fill="#8D6637"/>
    <path d="M388.117,223.304 L387.747,229.51 L422.409,231.526 L420.647,226.383 L388.117,223.304 z" fill="#8D6637"/>
    <path d="M293.632,174.689 L292.629,177.921 L338.173,176.309 L334.938,172.285 L293.632,174.689 z" fill="#8D6637"/>
    <path d="M344.086,169.34 L344.219,172.285 L381.299,175.1 L380.482,169.118 L344.086,169.34 z" fill="#8D6637"/>
    <path d="M390.569,174.293 L390.166,177.921 L429.261,177.921 L427.447,172.051 L390.569,174.293 z" fill="#8D6637"/>
    <path d="M390.531,117.959 L390.166,122.301 L427.447,124.316 L425.221,120.567 L390.531,117.959 z" fill="#8D6637"/>
    <path d="M343.956,119.695 L341.327,124.316 L376.462,124.316 L376.043,120.351 L343.956,119.695 z" fill="#8D6637"/>
    <path d="M288.561,125.25 L287.39,129.915 L331.321,127.137 L330.515,119.695 L288.561,125.25 z" fill="#8D6637"/>
    <path d="M422.191,298.549 L427.202,272.42 L427.202,220.52 L437.224,185.443 L437.94,136.048 L443.666,93.812 L446.53,71.621 L451.541,69.115 L449.035,105.982 L444.74,141.059 L442.235,182.579 L437.582,218.372 L434.36,254.166 L430.423,298.549 L422.191,298.549 z" fill="#7A5353"/>
    <path d="M451.541,69.473 L447.604,73.052 L417.895,74.484 L377.807,75.2 L340.224,78.063 L304.431,77.705 L271.859,81.643 L270.428,74.484 L304.073,73.052 L330.56,70.547 L362.416,70.547 L402.146,69.473 L451.541,69.473 z" fill="#7C5656"/>
    <path d="M281.166,298.191 L279.018,256.313 L280.45,214.793 L277.586,166.472 L277.228,117.794 L274.007,75.916 L270.428,74.126 L270.428,108.13 L272.575,138.912 L273.291,182.579 L276.512,229.826 L275.797,259.177 L278.302,298.907 L281.166,298.191 z" fill="#794E4E"/>
    <path d="M285.38,85.214 L328.741,82.805 L331.15,123.757 L328.053,120.659 L325.644,86.934 L288.821,87.967 L293.639,125.477 L289.165,125.821 L285.38,85.214 z" fill="#8D6637"/>
    <path d="M290.542,135.801 L293.639,175.032 L296.392,174 L293.295,139.243 L327.364,138.898 L332.182,172.279 L334.935,171.935 L330.461,135.457 L290.542,135.801 z" fill="#8D6637"/>
    <path d="M344.571,169.182 L340.785,132.704 L379.673,132.704 L381.049,168.494 L377.952,169.182 L376.575,134.769 L343.194,135.801 L348.356,169.87 L344.571,169.182 z" fill="#8D6637"/>
    <path d="M390.341,174 L393.094,135.457 L427.507,134.081 L427.163,172.279 L424.41,172.623 L424.754,137.178 L396.191,138.554 L396.879,174.344 L390.341,174 z" fill="#8D6637"/>
    <path d="M297.769,228.373 L295.36,185.356 L334.935,183.636 L334.935,222.867 L331.838,223.555 L332.182,186.389 L299.145,187.765 L301.898,228.029 L297.769,228.373 z" fill="#8D6637"/>
    <path d="M347.668,225.276 L344.915,184.668 L377.264,181.915 L376.231,225.964 L372.446,225.964 L373.822,185.356 L348.356,187.765 L351.454,224.932 L347.668,225.276 z" fill="#8D6637"/>
    <path d="M387.243,223.899 L388.276,186.733 L422.345,184.668 L422.001,226.996 L417.527,228.029 L417.871,188.454 L391.373,190.174 L391.717,224.243 L387.243,223.899 z" fill="#8D6637"/>
    <path d="M342.506,119.627 L339.065,84.181 L381.393,82.805 L376.919,120.315 L374.166,120.315 L375.543,87.278 L342.85,86.246 L346.98,119.627 L342.506,119.627 z" fill="#8D6637"/>
    <path d="M390.341,118.25 L389.996,85.214 L430.948,83.837 L425.442,119.971 L422.345,120.315 L427.163,87.278 L393.782,88.655 L394.126,118.595 L390.341,118.25 z" fill="#8D6637"/>
    <path d="M387.046,293.438 L386.205,264.42 L401.345,262.317 L402.607,266.943 L398.401,277.457 L395.037,289.233 L394.196,296.803 L387.046,293.438 z" fill="#BDB0B0"/>
    <path d="M307.561,241.71 L331.953,240.869 L332.374,253.485 L323.542,251.383 L316.393,256.009 L304.617,261.476 L299.15,253.065 L307.561,241.71 z" fill="#BDB0B0"/>
  </g>
</svg>
